<svg version="1.1" viewBox="0.0 0.0 960.0 960.0" fill="none" stroke="none" stroke-linecap="square" stroke-miterlimit="10" xmlns:xlink="http://www.w3.org/1999/xlink" xmlns="http://www.w3.org/2000/svg"><clipPath id="p.0"><path d="m0 0l960.0 0l0 960.0l-960.0 0l0 -960.0z" clip-rule="nonzero"/></clipPath><g clip-path="url(#p.0)"><path fill="#000000" fill-opacity="0.0" d="m0 0l960.0 0l0 960.0l-960.0 0z" fill-rule="evenodd"/><path fill="#000000" fill-opacity="0.0" d="m90.1811 213.44882l350.14175 0l0 342.58267l-350.14175 0z" fill-rule="evenodd"/><path fill="#ffffff" d="m278.58832 478.44882q-4.265625 0 -7.34375 -2.921875q-3.0625 -2.9375 -3.0625 -7.484375l0 -173.3125l-26.656235 9.328125q-2.9375 1.328125 -5.34375 1.328125q-4.53125 0 -7.46875 -2.921875q-2.921875 -2.9375 -2.921875 -7.203125q0 -3.203125 1.453125 -5.859375q1.46875 -2.671875 5.203125 -4.015625l41.07811 -14.125q1.328125 -0.53125 2.796875 -0.9375q1.46875 -0.40625 2.53125 -0.40625q4.53125 0 7.328125 3.078125q2.796875 3.0625 2.796875 7.328125l0 187.71875q0 4.546875 -2.9375 7.484375q-2.921875 2.921875 -7.453125 2.921875z" fill-rule="nonzero"/><path fill="#000000" fill-opacity="0.0" d="m304.20996 459.04462l350.14172 0l0 342.5827l-350.14172 0z" fill-rule="evenodd"/><path fill="#ffffff" d="m431.14536 724.0446q-4.265625 0 -7.328125 -2.921875q-3.0625 -2.9375 -3.0625 -7.484375q0 -4.0 2.921875 -7.1875l80.796844 -95.46875q6.671875 -7.203125 10.671875 -16.125q4.0 -8.9375 4.0 -16.671875q0 -12.53125 -4.9375 -22.125q-4.921875 -9.609375 -13.859375 -15.078125q-8.9375 -5.46875 -20.40625 -5.46875q-11.1875 0 -20.390625 5.734375q-9.203125 5.734375 -14.40625 15.34375q-5.203125 9.59375 -5.203125 21.59375q0 4.265625 -2.9375 7.203125q-2.921875 2.921875 -7.4530945 2.921875q-4.265625 0 -7.34375 -2.921875q-3.0625 -2.9375 -3.0625 -7.203125q0 -17.875 8.0 -32.0q7.9999695 -14.140625 21.734344 -22.40625q13.734375 -8.265625 31.0625 -8.265625q17.34375 0 30.796875 8.0q13.46875 8.0 21.0625 22.140625q7.609375 14.125 7.609375 32.53125q0 8.796875 -2.796875 16.796875q-2.796875 8.0 -7.609375 15.34375q-4.796875 7.328125 -10.390625 13.71875l-68.265625 79.203125l83.46875 0q4.265625 0 7.328125 3.203125q3.0625 3.1875 3.0625 7.1875q0 4.546875 -3.0625 7.484375q-3.0625 2.921875 -7.328125 2.921875l-102.671844 0z" fill-rule="nonzero"/><path fill="#000000" fill-opacity="0.0" d="m531.15485 295.6719l350.14172 0l0 342.58267l-350.14172 0z" fill-rule="evenodd"/><path fill="#ffffff" d="m708.2288 562.00006q-18.671875 0 -33.46875 -8.125q-14.796875 -8.140625 -23.328125 -22.265625q-8.53125 -14.140625 -8.53125 -32.00003q0 -4.53125 2.65625 -7.734375q2.671875 -3.203125 7.203125 -3.203125q4.53125 0 7.203125 3.203125q2.671875 3.203125 2.671875 7.734375q0 12.265625 5.859375 22.00003q5.859375 9.734375 16.125 15.46875q10.265625 5.734375 22.8125 5.734375q20.796875 0 32.53125 -11.59375q11.734375 -11.609375 11.734375 -30.015656q0 -13.0625 -5.609375 -22.796875q-5.59375 -9.734375 -15.203125 -15.1875q-9.59375 -5.46875 -21.59375 -5.46875q-4.265625 0 -7.203125 -2.9375q-2.921875 -2.9375 -2.921875 -7.46875q0 -4.265625 2.921875 -7.203125q2.9375 -2.9375 7.203125 -2.9375q9.328125 0 17.1875 -4.65625q7.875 -4.671875 12.671875 -12.40625q4.8125 -7.734375 4.8125 -17.0625q0 -14.140625 -9.609375 -23.59375q-9.59375 -9.46875 -25.59375 -9.46875q-11.203125 0 -20.0 4.40625q-8.796875 4.390625 -13.734375 11.734375q-4.9375 7.328125 -4.9375 16.65625q0 4.53125 -2.796875 7.609375q-2.796875 3.0625 -7.0625 3.0625q-4.53125 0 -7.203125 -3.0625q-2.671875 -3.078125 -2.671875 -7.34375q0 -14.671875 7.59375 -26.53125q7.609375 -11.875 20.671875 -18.671875q13.078125 -6.796875 30.140625 -6.796875q15.46875 0 27.859375 6.796875q12.40625 6.796875 19.734375 18.671875q7.34375 11.859375 7.34375 26.53125q0 9.0625 -4.40625 17.59375q-4.40625 8.53125 -11.609375 15.34375q-7.1875 6.796875 -15.71875 10.53125q13.59375 4.0 22.65625 12.265625q9.078125 8.265625 13.34375 19.328125q4.265625 11.0625 4.265625 23.0625q0 17.609406 -8.40625 31.34378q-8.40625 13.71875 -23.078125 21.59375q-14.65625 7.859375 -32.515625 7.859375z" fill-rule="nonzero"/></g></svg>