<svg version="1.1" viewBox="0.0 0.0 100.0 100.0" fill="none" stroke="none" stroke-linecap="square" stroke-miterlimit="10" xmlns:xlink="http://www.w3.org/1999/xlink" xmlns="http://www.w3.org/2000/svg"><clipPath id="p.0"><path d="m0 0l100.0 0l0 100.0l-100.0 0l0 -100.0z" clip-rule="nonzero"/></clipPath><g clip-path="url(#p.0)"><path fill="#000000" fill-opacity="0.0" d="m0 0l100.0 0l0 100.0l-100.0 0z" fill-rule="evenodd"/><path fill="#999999" d="m10.057641 50.426777l0 0c0 -23.204657 18.162434 -42.015747 40.56693 -42.015747l0 0c10.759018 0 21.077374 4.426646 28.685154 12.3061285c7.607773 7.8794804 11.881775 18.56635 11.881775 29.70962l0 0c0 23.204655 -18.16243 42.01575 -40.56693 42.01575l0 0c-22.404495 0 -40.56693 -18.811096 -40.56693 -42.01575zm5.137396 0l0 0c0 20.367352 15.862342 36.878353 35.42953 36.878353c19.567188 0 35.42953 -16.511002 35.42953 -36.878353l0 0c0 -20.367352 -15.862343 -36.878353 -35.42953 -36.878353l0 0c-19.56719 0 -35.42953 16.511002 -35.42953 36.878353z" fill-rule="evenodd"/><defs><linearGradient id="p.1" gradientUnits="userSpaceOnUse" gradientTransform="matrix(9.166885487717312 0.0 0.0 9.166885487717312 0.0 0.0)" spreadMethod="pad" x1="0.9610359824359155" y1="0.8244293343575857" x2="0.9610028486080399" y2="9.991314822015017"><stop offset="0.0" stop-color="#d9d9d9"/><stop offset="1.0" stop-color="#666666"/></linearGradient></defs><path fill="url(#p.1)" d="m8.809707 49.57349l0 0c0 -23.204657 18.162434 -42.015747 40.56693 -42.015747l0 0c10.759018 0 21.077374 4.4266467 28.685154 12.306128c7.607773 7.8794804 11.881775 18.56635 11.881775 29.70962l0 0c0 23.204655 -18.16243 42.01575 -40.56693 42.01575l0 0c-22.404497 0 -40.56693 -18.811096 -40.56693 -42.01575z" fill-rule="evenodd"/><defs><linearGradient id="p.2" gradientUnits="userSpaceOnUse" gradientTransform="matrix(9.166885382863553 0.0 0.0 9.166885382863553 0.0 0.0)" spreadMethod="pad" x1="0.9621888269635201" y1="0.8262414286607608" x2="0.9621556232326743" y2="9.99312681146418"><stop offset="0.0" stop-color="#ffffff"/><stop offset="1.0" stop-color="#b3b3b3"/></linearGradient></defs><path fill="url(#p.2)" d="m8.820274 49.590103l0 0c0 -23.204659 18.162434 -42.015747 40.56693 -42.015747l0 0c10.759018 0 21.077374 4.426646 28.685154 12.306128c7.607773 7.8794804 11.881775 18.566353 11.881775 29.709621l0 0c0 23.204659 -18.16243 42.015747 -40.56693 42.015747l0 0c-22.404495 0 -40.56693 -18.811089 -40.56693 -42.015747zm7.9649105 0l0 0c0 18.805756 14.596422 34.050835 32.60202 34.050835c18.005596 0 32.602016 -15.245079 32.602016 -34.050835l0 0c0 -18.80576 -14.59642 -34.05084 -32.602016 -34.05084l0 0c-18.005596 0 -32.60202 15.245079 -32.60202 34.05084z" fill-rule="evenodd"/></g></svg>